<mxfile host="app.diagrams.net" modified="2023-11-09T13:15:51.230Z" agent="Mozilla/5.0 (Windows NT 10.0; Win64; x64) AppleWebKit/537.36 (KHTML, like Gecko) Chrome/118.0.0.0 Safari/537.36 Edg/118.0.2088.76" version="22.1.0" etag="pE6UhFrePV_2mo98-42y" type="github">
  <diagram name="Page-1" id="MwZf4FcC_89wzeTxwLsg">
    <mxGraphModel>
      <root>
        <mxCell id="0" />
        <mxCell id="1" parent="0" />
      </root>
    </mxGraphModel>
  </diagram>
</mxfile>
